<?xml version="1.0" encoding="UTF-8"?>
<svg id="Layer_1" data-name="Layer 1" xmlns="http://www.w3.org/2000/svg" viewBox="0 0 374.86 259.67">
  <defs>
    <style>
      .cls-1 {
        fill: #e97a35;
      }

      .cls-2 {
        fill: #333;
      }
    </style>
  </defs>
  <g>
    <path class="cls-2" d="M152.58,0c-3.55,0-6.77,1.45-9.09,3.79l-3.6,7.23-11.9,23.98H23C10.31,35,0,45.29,0,58v28.71h118.18c18.63-22.75,46.65-37.49,78.17-38.28V0h-43.77ZM167.58,94.64c-20.64,11.18-34.65,33.02-34.65,58.13,0,35.59,28.15,64.61,63.42,65.99V86.77c-10.4.4-20.16,3.2-28.77,7.87ZM152.98,86.71c12.35-8.63,27.27-13.88,43.37-14.39v-16.39c-26.92.72-51.1,12.41-68.23,30.78-2.36,2.52-4.57,5.17-6.65,7.93-12.16,16.2-19.36,36.32-19.36,58.13,0,52.62,41.95,95.45,94.24,96.84v-16.39c-43.24-1.39-77.86-36.87-77.86-80.45,0-22.85,9.51-43.48,24.82-58.13,3-2.89,6.24-5.54,9.67-7.93ZM94.62,152.77c0-21.52,6.5-41.52,17.68-58.13H0v142.03c0,12.7,10.31,23,23,23h173.35v-2.56c-56.42-1.41-101.73-47.58-101.73-104.34Z"/>
    <path class="cls-2" d="M51.39,16.47h26.94c5.58,0,10.11,4.53,10.11,10.11v4.2h-47.17v-4.2c0-5.58,4.53-10.11,10.11-10.11Z"/>
    <path class="cls-1" d="M374.86,94.64v142.03c0,12.7-10.3,23-23,23h-150.23v-2.56c48.52-1.21,88.83-35.53,99.16-81.22h-7.7c-10.16,41.52-47.09,72.54-91.46,73.72v-16.39c39.49-1.27,71.8-30.98,77.09-69.33h33.08v15.96l34.02-28.18-17.01-14.09-17.01-14.1v15.97h-33.42c-2.9-17.49-11.45-33.07-23.71-44.81-3.01-2.89-6.24-5.54-9.67-7.93-12.36-8.63-27.27-13.88-43.37-14.39v-16.39c26.92.72,51.1,12.41,68.22,30.78,2.36,2.52,4.58,5.17,6.66,7.93,7.05,9.39,12.43,20.11,15.72,31.71h7.75c-2.98-11.46-7.87-22.15-14.3-31.71h89.18Z"/>
    <path class="cls-1" d="M351.86,35h-83.86l-11.92-23.98-3.59-7.25c-2.33-2.33-5.55-3.77-9.1-3.77h-41.77v48.43c31.51.79,59.55,15.53,78.18,38.28h95.06v-28.71c0-12.71-10.3-23-23-23ZM349.79,71.03c0,1.34-1.1,2.43-2.43,2.43h-38.11c-1.34,0-2.44-1.09-2.44-2.43v-17.03c0-1.35,1.1-2.44,2.44-2.44h38.11c1.33,0,2.43,1.09,2.43,2.44v17.03Z"/>
  </g>
  <g>
    <path class="cls-2" d="M277.23,27.41h-1.36l1.53-8.63h-3.11l.21-1.19h7.55l-.21,1.19h-3.08l-1.53,8.63Z"/>
    <path class="cls-2" d="M286.92,25.16h.01l4.3-7.58h2.11l-1.72,9.82h-1.35l1.46-8.2h-.04l-4.73,8.2h-.86l-1.82-8.2h-.03l-1.46,8.2h-1.3l1.73-9.82h2.09l1.6,7.58Z"/>
  </g>
</svg>