<?xml version="1.0" encoding="UTF-8"?>
<svg id="Layer_1" data-name="Layer 1" xmlns="http://www.w3.org/2000/svg" viewBox="0 0 374.86 295.04">
  <defs>
    <style>
      .cls-1 {
        fill: #e97a35;
      }

      .cls-2 {
        fill: #fff;
      }
    </style>
  </defs>
  <g>
    <path class="cls-2" d="M152.58,0c-3.55,0-6.77,1.45-9.09,3.79l-3.6,7.23-11.9,23.98H23C10.31,35,0,45.29,0,58v28.71h118.18c18.63-22.75,46.65-37.49,78.17-38.28V0h-43.77ZM167.58,94.64c-20.64,11.18-34.65,33.02-34.65,58.13,0,35.59,28.15,64.61,63.42,65.99V86.77c-10.4.4-20.16,3.2-28.77,7.87ZM152.98,86.71c12.35-8.63,27.27-13.88,43.37-14.39v-16.39c-26.92.72-51.1,12.41-68.23,30.78-2.36,2.52-4.57,5.17-6.65,7.93-12.16,16.2-19.36,36.32-19.36,58.13,0,52.62,41.95,95.45,94.24,96.84v-16.39c-43.24-1.39-77.86-36.87-77.86-80.45,0-22.85,9.51-43.48,24.82-58.13,3-2.89,6.24-5.54,9.67-7.93ZM94.62,152.77c0-21.52,6.5-41.52,17.68-58.13H0v142.03c0,12.7,10.31,23,23,23h173.35v-2.56c-56.42-1.41-101.73-47.58-101.73-104.34Z"/>
    <path class="cls-2" d="M51.39,16.47h26.94c5.58,0,10.11,4.53,10.11,10.11v4.2h-47.17v-4.2c0-5.58,4.53-10.11,10.11-10.11Z"/>
    <path class="cls-1" d="M374.86,94.64v142.03c0,12.7-10.3,23-23,23h-150.23v-2.56c48.52-1.21,88.83-35.53,99.16-81.22h-7.7c-10.16,41.52-47.09,72.54-91.46,73.72v-16.39c39.49-1.27,71.8-30.98,77.09-69.33h33.08v15.96l34.02-28.18-17.01-14.09-17.01-14.1v15.97h-33.42c-2.9-17.49-11.45-33.07-23.71-44.81-3.01-2.89-6.24-5.54-9.67-7.93-12.36-8.63-27.27-13.88-43.37-14.39v-16.39c26.92.72,51.1,12.41,68.22,30.78,2.36,2.52,4.58,5.17,6.66,7.93,7.05,9.39,12.43,20.11,15.72,31.71h7.75c-2.98-11.46-7.87-22.15-14.3-31.71h89.18Z"/>
    <path class="cls-1" d="M351.86,35h-83.86l-11.92-23.98-3.59-7.25c-2.33-2.33-5.55-3.77-9.1-3.77h-41.77v48.43c31.51.79,59.55,15.53,78.18,38.28h95.06v-28.71c0-12.71-10.3-23-23-23ZM349.79,71.03c0,1.34-1.1,2.43-2.43,2.43h-38.11c-1.34,0-2.44-1.09-2.44-2.43v-17.03c0-1.35,1.1-2.44,2.44-2.44h38.11c1.33,0,2.43,1.09,2.43,2.44v17.03Z"/>
  </g>
  <g>
    <path class="cls-2" d="M277.23,27.41h-1.36l1.53-8.63h-3.11l.21-1.19h7.55l-.21,1.19h-3.08l-1.53,8.63Z"/>
    <path class="cls-2" d="M286.92,25.16h.01l4.3-7.58h2.11l-1.72,9.82h-1.35l1.46-8.2h-.04l-4.73,8.2h-.86l-1.82-8.2h-.03l-1.46,8.2h-1.3l1.73-9.82h2.09l1.6,7.58Z"/>
  </g>
  <g>
    <g>
      <path class="cls-2" d="M84.14,270c-1.8-1.42-4.4-2.13-7.81-2.13h-9.84l-4.67,26.41h8.58l1.57-8.61h2.53c1.94,0,3.67-.2,5.19-.58,1.52-.38,2.81-.97,3.88-1.77,1.07-.8,1.88-1.82,2.45-3.06.56-1.24.84-2.71.84-4.4,0-2.48-.91-4.43-2.71-5.86ZM77.26,278.58c-.67.4-1.61.6-2.8.6h-1.38l.82-4.55h1.31c.94,0,1.69.15,2.23.45.55.3.83.85.83,1.64,0,.85-.34,1.47-1.01,1.86Z"/>
      <path class="cls-2" d="M110.59,280.6c1.04-1.42,1.55-3.22,1.55-5.41,0-1.17-.22-2.21-.65-3.11-.44-.91-1.07-1.67-1.88-2.29-.82-.62-1.82-1.1-2.99-1.42-1.17-.32-2.47-.49-3.91-.49h-10.85l-4.67,26.41h8.32l1.64-9.65h1.04l3.62,9.65h9.69l-5.14-10.78c1.79-.52,3.2-1.49,4.23-2.91ZM102.59,278.57c-.65.38-1.54.58-2.69.58h-1.72l.78-4.44h1.61c.92,0,1.65.15,2.18.43s.8.81.8,1.58c0,.85-.33,1.46-.97,1.85Z"/>
      <path class="cls-2" d="M142.65,274.37c-.57-1.47-1.41-2.74-2.52-3.8-1.1-1.07-2.48-1.89-4.1-2.48-1.64-.58-3.51-.88-5.65-.88-2.42,0-4.61.42-6.59,1.23-1.97.82-3.66,1.94-5.05,3.36-1.39,1.42-2.48,3.08-3.24,5-.77,1.91-1.15,3.97-1.15,6.16,0,1.77.28,3.38.85,4.85.57,1.47,1.41,2.73,2.52,3.8,1.1,1.07,2.48,1.89,4.1,2.48,1.63.58,3.5.88,5.61.88,2.44,0,4.64-.41,6.62-1.23,1.98-.83,3.67-1.94,5.07-3.36,1.41-1.42,2.49-3.08,3.25-5,.76-1.91,1.14-3.97,1.14-6.16,0-1.77-.29-3.38-.86-4.85ZM134.07,282.54c-.29.87-.72,1.64-1.26,2.31s-1.21,1.21-1.98,1.61c-.77.39-1.64.6-2.61.6-.8,0-1.5-.12-2.11-.38-.61-.25-1.12-.58-1.53-1.02-.42-.43-.72-.94-.93-1.53-.21-.58-.32-1.21-.32-1.88,0-.9.15-1.78.45-2.65.3-.87.72-1.64,1.26-2.32s1.21-1.21,2-1.62c.78-.41,1.66-.61,2.63-.61.77,0,1.46.12,2.07.37.61.25,1.12.59,1.53,1.03.41.43.72.94.93,1.53s.32,1.21.32,1.88c0,.92-.15,1.81-.45,2.69Z"/>
      <path class="cls-2" d="M173.71,274.37c-.57-1.47-1.41-2.74-2.51-3.8-1.11-1.07-2.48-1.89-4.1-2.48-1.63-.58-3.51-.88-5.65-.88-2.41,0-4.61.42-6.58,1.23-1.98.82-3.67,1.94-5.05,3.36-1.39,1.42-2.48,3.08-3.25,5-.77,1.91-1.15,3.97-1.15,6.16,0,1.77.28,3.38.85,4.85.58,1.47,1.42,2.73,2.52,3.8,1.11,1.07,2.48,1.89,4.1,2.48,1.63.58,3.5.88,5.62.88,2.43,0,4.64-.41,6.62-1.23,1.98-.83,3.67-1.94,5.08-3.36,1.4-1.42,2.48-3.08,3.24-5,.76-1.91,1.14-3.97,1.14-6.16,0-1.77-.28-3.38-.86-4.85ZM165.14,282.54c-.3.87-.72,1.64-1.27,2.31s-1.21,1.21-1.98,1.61c-.77.39-1.64.6-2.61.6-.8,0-1.5-.12-2.11-.38-.61-.25-1.12-.58-1.53-1.02-.41-.43-.72-.94-.93-1.53-.21-.58-.31-1.21-.31-1.88,0-.9.15-1.78.45-2.65.3-.87.72-1.64,1.27-2.32s1.21-1.21,1.99-1.62c.78-.41,1.66-.61,2.63-.61.77,0,1.46.12,2.07.37.61.25,1.12.59,1.53,1.03.41.43.72.94.93,1.53.21.58.31,1.21.31,1.88,0,.92-.15,1.81-.45,2.69Z"/>
      <path class="cls-2" d="M195.98,275.15l1.27-7.27h-17.01l-4.66,26.41h8.46l1.61-9.1h8.09l1.23-7.01h-8.14l.56-3.02h8.57Z"/>
      <path class="cls-1" d="M215.58,280.82c-.62-.62-1.38-1.17-2.27-1.64-.89-.47-1.91-.9-3.05-1.27-.91-.3-1.61-.58-2.08-.85-.47-.28-.71-.66-.71-1.16,0-.62.28-1.08.84-1.38.56-.29,1.19-.45,1.88-.45.9,0,1.68.16,2.35.47.67.31,1.22.72,1.64,1.21l5.52-5.33c-.47-.5-1.06-.95-1.75-1.34-.7-.4-1.46-.74-2.28-1.03s-1.69-.5-2.61-.67c-.92-.16-1.85-.24-2.8-.24-1.72,0-3.29.24-4.73.73-1.42.48-2.66,1.15-3.69,2.02-1.04.85-1.83,1.87-2.39,3.04-.56,1.17-.84,2.44-.84,3.8,0,1.12.18,2.07.53,2.86.34.78.83,1.45,1.43,2.01.61.56,1.33,1.04,2.16,1.44.83.39,1.72.74,2.67,1.04,1.19.37,2,.73,2.44,1.08.44.35.65.74.65,1.2,0,.54-.26.96-.78,1.25-.52.28-1.22.42-2.09.42-.39,0-.83-.05-1.31-.17-.47-.11-.93-.26-1.39-.45-.46-.18-.91-.42-1.32-.69-.42-.28-.79-.58-1.09-.93l-5.89,5.45c.62.59,1.35,1.13,2.2,1.6.85.47,1.75.87,2.7,1.2.96.32,1.96.57,3,.74,1.04.18,2.09.26,3.13.26,1.32,0,2.67-.18,4.06-.53,1.39-.35,2.66-.9,3.81-1.64,1.15-.74,2.1-1.72,2.84-2.91.74-1.2,1.11-2.64,1.11-4.33,0-.99-.17-1.88-.5-2.68-.34-.8-.82-1.5-1.43-2.13Z"/>
      <path class="cls-1" d="M240,267.87l-1.61,9.06h-7.53l1.6-9.06h-8.57l-4.67,26.41h8.62l1.79-10.14h7.54l-1.79,10.14h8.62l4.66-26.41h-8.65Z"/>
      <path class="cls-1" d="M278.19,274.37c-.57-1.47-1.41-2.74-2.52-3.8-1.1-1.07-2.48-1.89-4.1-2.48-1.63-.58-3.51-.88-5.65-.88-2.42,0-4.61.42-6.59,1.23-1.98.82-3.66,1.94-5.05,3.36-1.39,1.42-2.48,3.08-3.24,5-.77,1.91-1.16,3.97-1.16,6.16,0,1.77.29,3.38.86,4.85.57,1.47,1.41,2.73,2.52,3.8,1.1,1.07,2.47,1.89,4.1,2.48s3.51.88,5.62.88c2.44,0,4.64-.41,6.62-1.23,1.97-.83,3.67-1.94,5.07-3.36,1.41-1.42,2.49-3.08,3.25-5,.75-1.91,1.13-3.97,1.13-6.16,0-1.77-.28-3.38-.85-4.85ZM269.61,282.54c-.3.87-.72,1.64-1.26,2.31-.55.67-1.21,1.21-1.98,1.61-.77.39-1.64.6-2.61.6-.8,0-1.5-.12-2.1-.38-.61-.25-1.12-.58-1.53-1.02-.41-.43-.72-.94-.93-1.53-.21-.58-.32-1.21-.32-1.88,0-.9.15-1.78.45-2.65.29-.87.72-1.64,1.26-2.32s1.21-1.21,1.99-1.62c.79-.41,1.67-.61,2.64-.61.77,0,1.46.12,2.07.37.61.25,1.12.59,1.53,1.03.42.43.72.94.93,1.53.21.58.32,1.21.32,1.88,0,.92-.15,1.81-.45,2.69Z"/>
      <path class="cls-1" d="M281.29,267.87l-1.31,7.27h6.68l-3.35,19.13h8.65l3.35-19.13h6.46l1.31-7.27h-21.79Z"/>
    </g>
    <path class="cls-2" d="M312.25,272.04c-.18-.09-.4-.14-.69-.14h-.4l-.26,1.4h.43c.37,0,.65-.06.86-.18.2-.12.31-.31.31-.57s-.08-.42-.25-.51ZM320.05,272.06c-.17-.09-.39-.13-.67-.13h-.5l-.24,1.37h.53c.36,0,.64-.07.83-.18.2-.12.3-.31.3-.56,0-.24-.08-.4-.25-.5ZM320.05,272.06c-.17-.09-.39-.13-.67-.13h-.5l-.24,1.37h.53c.36,0,.64-.07.83-.18.2-.12.3-.31.3-.56,0-.24-.08-.4-.25-.5ZM312.25,272.04c-.18-.09-.4-.14-.69-.14h-.4l-.26,1.4h.43c.37,0,.65-.06.86-.18.2-.12.31-.31.31-.57s-.08-.42-.25-.51ZM307.19,267.96l-2.09,11.89,28.39-.03,2.1-11.88-28.39.02ZM314.88,273.64c-.17.38-.42.69-.75.94-.33.25-.73.42-1.2.55-.47.12-1,.18-1.6.18h-.78l-.48,2.66h-2.64l1.44-8.14h3.03c1.05,0,1.85.22,2.41.66.56.43.84,1.04.84,1.8,0,.52-.09.97-.26,1.36ZM322.75,277.97h-2.99l-1.12-2.98h-.32l-.5,2.98h-2.56l1.43-8.14h3.35c.44,0,.85.05,1.2.15.37.1.67.25.92.44.26.2.45.43.58.71.14.28.2.6.2.96,0,.68-.15,1.23-.47,1.67-.32.44-.75.74-1.31.9l1.59,3.32ZM332.27,275.21c-.24.59-.57,1.11-1.01,1.55s-.95.77-1.56,1.03c-.61.26-1.29.39-2.04.39-.65,0-1.23-.09-1.73-.27-.5-.18-.93-.44-1.26-.77-.34-.34-.61-.72-.78-1.18-.18-.45-.26-.95-.26-1.5,0-.67.12-1.31.36-1.9.24-.59.57-1.1,1-1.54.43-.44.95-.78,1.56-1.03.61-.26,1.29-.38,2.04-.38.65,0,1.23.09,1.74.27.5.18.92.43,1.26.77.34.32.6.72.77,1.17s.27.95.27,1.49c0,.68-.12,1.31-.35,1.9ZM329.46,272.46c-.13-.13-.29-.23-.48-.31-.18-.07-.39-.12-.64-.12-.3,0-.57.07-.81.19-.24.12-.45.3-.61.5-.17.2-.3.45-.39.71-.09.27-.13.54-.13.82,0,.21.03.4.09.58.07.18.16.34.29.47.12.12.28.23.47.31.19.07.4.12.65.12.3,0,.57-.07.8-.19.24-.12.44-.28.61-.5.17-.2.3-.45.39-.71.09-.27.14-.55.14-.83,0-.2-.03-.4-.09-.58s-.16-.34-.28-.47ZM319.38,271.93h-.5l-.24,1.37h.53c.36,0,.64-.07.83-.18.2-.12.3-.31.3-.56,0-.24-.08-.4-.25-.5-.17-.09-.39-.13-.67-.13ZM311.55,271.91h-.4l-.26,1.4h.43c.37,0,.65-.06.86-.18.2-.12.31-.31.31-.57s-.08-.42-.25-.51c-.18-.09-.4-.14-.69-.14ZM312.25,272.04c-.18-.09-.4-.14-.69-.14h-.4l-.26,1.4h.43c.37,0,.65-.06.86-.18.2-.12.31-.31.31-.57s-.08-.42-.25-.51ZM312.25,272.04c-.18-.09-.4-.14-.69-.14h-.4l-.26,1.4h.43c.37,0,.65-.06.86-.18.2-.12.31-.31.31-.57s-.08-.42-.25-.51Z"/>
  </g>
</svg>